<svg width="140" height="35" viewBox="0 0 140 35" fill="none" xmlns="http://www.w3.org/2000/svg">
<path d="M23.2779 12.649C21.8253 14.2484 19.5934 15.6568 16.7986 15.6568C12.2651 15.6568 9.24951 12.7546 9.24951 7.9991C9.24951 3.09313 12.9497 0.148193 15.7513 0.148193C17.8908 0.148193 18.8525 1.34773 19.0439 1.59932L19.5371 0.404274H22.895V6.46935H19.0664C19.0011 5.08337 18.3165 3.77376 16.7986 3.77376C15.2807 3.77376 14.2537 5.67191 14.2537 7.99686C14.2537 10.1084 15.346 12.0065 17.3774 12.0065C19.1791 12.0065 20.5844 10.1286 20.7758 9.91522L23.2779 12.649Z" fill="#E62A2A"/>
<path d="M23.9194 7.78576C23.9194 3.17855 26.9981 0 31.4257 0C36.6641 0 39.1031 3.14486 39.1031 7.93402C39.1031 12.7232 36.4006 15.6996 31.5743 15.6996C27.1062 15.6996 23.9194 13.1185 23.9194 7.78576ZM33.7566 7.93402C33.7566 5.35299 33.0495 3.28413 31.4032 3.28413C30.0992 3.26391 29.2006 5.13959 29.2006 7.77678C29.2006 10.5802 30.2051 12.3548 31.5743 12.3548C32.9436 12.3548 33.7566 10.5802 33.7566 7.93402Z" fill="#E62A2A"/>
<path d="M39.957 12.4783H41.2835V3.22119H39.957V0.404297H46.4881C51.668 0.404297 54.6138 3.58285 54.6138 7.65768C54.6138 12.521 51.6635 15.3154 46.4026 15.3154H39.957V12.4783ZM46.4881 12.4783C48.756 12.4356 49.6951 10.3241 49.6951 7.65768C49.6951 5.37542 48.756 3.22119 46.4881 3.22119H45.6751V12.4783H46.4881Z" fill="#E62A2A"/>
<path d="M68.2391 0.404297V5.12158H64.5479V3.22119H61.1269V6.16388H65.1807V9.00099H61.1269V12.4783H64.5479V10.4948H68.2391V15.3154H55.3525V12.4783H56.7038V3.22119H55.3525V0.404297H68.2391Z" fill="#E62A2A"/>
<path d="M61.8021 19.7273V24.4446H58.0186V22.5464H54.789V26.2574H58.8428V29.09H54.789V31.799H56.9781V34.6362H49.0146V31.799H50.3411V22.5419H49.0146V19.7273H61.8021Z" fill="#333334"/>
<path d="M69.2434 19.7273V22.479H68.0881V27.0863C68.0881 30.5186 68.8583 31.2442 70.2276 31.2442C71.5316 31.2442 72.3874 30.732 72.3874 27.0638V22.5419H71.2321V19.7273H77.5627V22.479H76.4074V27.6613C76.4074 32.7178 74.2904 35.0001 70.2704 35.0001C65.9509 34.872 63.6402 32.61 63.6402 27.7669V22.4993H62.4443V19.7273H69.2434Z" fill="#333334"/>
<path d="M92.5618 25.2735H89.4088V22.5419H87.6072V31.799H89.3818V34.6362H81.4319V31.799H83.1863V22.5419H81.3463V25.2735H78.1934V19.7273H92.5618V25.2735Z" fill="#333334"/>
<path d="M99.9937 19.7273V22.479H98.8384V27.0863C98.8384 30.5186 99.6086 31.2442 100.978 31.2442C102.282 31.2442 103.138 30.732 103.138 27.0638V22.5419H101.982V19.7273H108.313V22.479H107.158V27.6613C107.158 32.7178 105.041 35.0001 101.021 35.0001C96.6989 34.872 94.3905 32.61 94.3905 27.7669V22.4993H93.1924V19.7273H99.9937Z" fill="#333334"/>
<path d="M116.117 19.7273C121.071 19.7273 122.04 21.6883 122.04 24.1211C122.04 25.7834 120.715 26.9582 118.938 27.2143C120.416 27.4277 121.74 28.7059 121.74 30.2423C121.74 31.1588 121.868 31.6935 122.253 31.6935C122.576 31.6935 122.747 31.4374 122.747 31.0196V30.3142H124.179V31.4891C124.179 33.2592 123.431 34.9012 121.058 34.9012C118.256 34.9012 116.907 33.4299 116.907 30.9342C116.907 28.9934 116.682 28.5239 114.77 28.5239V31.8305H116.074V34.6451H109.167V31.8215H110.365V22.5217H109.167V19.7273H116.117ZM114.765 26.1248H115.727C116.968 26.1248 117.781 25.5273 117.781 24.3974C117.781 23.1395 117.074 22.4993 115.835 22.4993H114.765V26.1248Z" fill="#333334"/>
<path d="M137.829 19.7273V24.4446H134.122V22.5464H130.701V25.4891H134.755V28.3262H130.701V31.8035H134.122V29.82H137.829V34.6407H124.927V31.799H126.278V22.5419H124.927V19.7273H137.829Z" fill="#333334"/>
<path d="M86.5393 7.1253C86.6248 6.6985 87.0955 5.80222 87.332 5.29006L88.5076 3.14481H87.332V0.404297H93.0839V3.14481H91.9285L87.9738 10.068V12.5389H89.1697V15.3154H82.3278V12.5412H83.553V10.0253L79.3978 3.14481H78.3506V0.404297H85.6632V3.14481H84.5506L85.7916 5.39114C85.9199 5.79772 86.3681 6.75691 86.4537 7.12081L86.5393 7.1253Z" fill="#333334"/>
<path d="M93.1899 7.78576C93.1899 3.17855 96.2686 0 100.696 0C105.935 0 108.374 3.14486 108.374 7.93402C108.374 12.7232 105.671 15.6996 100.845 15.6996C96.3767 15.6996 93.1899 13.1185 93.1899 7.78576ZM103.027 7.93402C103.027 5.35299 102.322 3.28413 100.676 3.28413C99.3697 3.26391 98.4734 5.13959 98.4734 7.77678C98.4734 10.5712 99.4778 12.3413 100.845 12.3413C102.212 12.3413 103.027 10.5802 103.027 7.93402Z" fill="#333334"/>
<path d="M115.815 0.404297V3.15605H114.659V7.76326C114.659 11.1979 115.429 11.9235 116.799 11.9235C118.103 11.9235 118.959 11.4113 118.959 7.74304V3.22119H117.803V0.404297H124.134V3.15605H122.979V8.34057C122.979 13.3948 120.862 15.6771 116.842 15.6771C112.52 15.549 110.211 13.2892 110.211 8.44614V3.17851H109.013V0.404297H115.815Z" fill="#333334"/>
<path d="M131.938 0.404297C136.892 0.404297 137.861 2.36759 137.861 4.80036C137.861 6.46264 136.536 7.63522 134.762 7.8913C136.237 8.1047 137.561 9.38511 137.561 10.9216C137.561 11.8381 137.69 12.3705 138.075 12.3705C138.397 12.3705 138.568 12.1144 138.568 11.6966V10.9845H140V12.1571C140 13.9294 139.253 15.5715 136.879 15.5715C134.077 15.5715 132.728 14.1001 132.728 11.6045C132.728 9.6614 132.503 9.19417 130.591 9.19417V12.4985H131.895V15.3154H124.992V12.4985H126.19V3.19873H124.992V0.404297H131.938ZM130.586 6.80408H131.548C132.789 6.80408 133.602 6.20656 133.602 5.07665C133.602 3.81871 132.895 3.17851 131.656 3.17851H130.586V6.80408Z" fill="#333334"/>
<path d="M6.39373 4.6499L7.6977 7.03999L2.41651 9.4503L7.6977 11.8179L6.88694 14.035L0 10.8363V7.84867L6.39373 4.6499Z" fill="#333334"/>
<path d="M78.166 7.84867V10.8363L71.2813 14.035L70.4683 11.8179L75.7495 9.4503L70.4683 7.03999L71.7722 4.6499L78.166 7.84867Z" fill="#333334"/>
</svg>
