<svg xmlns="http://www.w3.org/2000/svg" xmlns:xlink="http://www.w3.org/1999/xlink" width="500" zoomAndPan="magnify" viewBox="0 0 375 374.999991" height="500" preserveAspectRatio="xMidYMid meet" version="1.0"><defs><g><g id="id1"/></g><clipPath id="id2"><path d="M 153 241 L 172 241 L 172 258.570312 L 153 258.570312 Z M 153 241 " clip-rule="nonzero"/></clipPath><clipPath id="id3"><path d="M 75 62.070312 L 310 62.070312 L 310 258.570312 L 75 258.570312 Z M 75 62.070312 " clip-rule="nonzero"/></clipPath></defs><path fill="rgb(100%, 8.628845%, 8.628845%)" d="M 135.960938 133.183594 L 157.769531 133.183594 L 157.769531 154.992188 L 135.960938 154.992188 Z M 135.960938 133.183594 " fill-opacity="1" fill-rule="evenodd"/><path fill="rgb(16.468811%, 18.03894%, 18.818665%)" d="M 194.761719 116.058594 L 212.277344 116.058594 L 212.277344 133.585938 L 194.761719 133.585938 Z M 194.761719 116.058594 " fill-opacity="1" fill-rule="evenodd"/><path fill="rgb(100%, 8.628845%, 8.628845%)" d="M 160.886719 158.683594 L 178.40625 158.683594 L 178.40625 176.199219 L 160.886719 176.199219 Z M 160.886719 158.683594 " fill-opacity="1" fill-rule="evenodd"/><path fill="rgb(16.468811%, 18.03894%, 18.818665%)" d="M 138.886719 177.761719 L 147.648438 177.761719 L 147.648438 186.519531 L 138.886719 186.519531 Z M 138.886719 177.761719 " fill-opacity="1" fill-rule="evenodd"/><path fill="rgb(16.468811%, 18.03894%, 18.818665%)" d="M 131.96875 109.738281 L 140.738281 109.738281 L 140.738281 118.496094 L 131.96875 118.496094 Z M 131.96875 109.738281 " fill-opacity="1" fill-rule="evenodd"/><path fill="rgb(16.468811%, 18.03894%, 18.818665%)" d="M 174.800781 134.261719 L 183.5625 134.261719 L 183.5625 143.019531 L 174.800781 143.019531 Z M 174.800781 134.261719 " fill-opacity="1" fill-rule="evenodd"/><path fill="rgb(16.468811%, 18.03894%, 18.818665%)" d="M 221.527344 108.664062 L 230.285156 108.664062 L 230.285156 117.421875 L 221.527344 117.421875 Z M 221.527344 108.664062 " fill-opacity="1" fill-rule="evenodd"/><path fill="rgb(16.468811%, 18.03894%, 18.818665%)" d="M 214.304688 92.3125 L 226.605469 92.3125 L 226.605469 104.621094 L 214.304688 104.621094 Z M 214.304688 92.3125 " fill-opacity="1" fill-rule="evenodd"/><path fill="rgb(16.468811%, 18.03894%, 18.818665%)" d="M 169.832031 74.019531 L 182.148438 74.019531 L 182.148438 86.320312 L 169.832031 86.320312 Z M 169.832031 74.019531 " fill-opacity="1" fill-rule="evenodd"/><path fill="rgb(16.468811%, 18.03894%, 18.818665%)" d="M 199.664062 87.59375 L 208.425781 87.59375 L 208.425781 96.351562 L 199.664062 96.351562 Z M 199.664062 87.59375 " fill-opacity="1" fill-rule="evenodd"/><path fill="rgb(16.468811%, 18.03894%, 18.818665%)" d="M 244.113281 114.40625 L 252.875 114.40625 L 252.875 123.164062 L 244.113281 123.164062 Z M 244.113281 114.40625 " fill-opacity="1" fill-rule="evenodd"/><path fill="rgb(100%, 8.628845%, 8.628845%)" d="M 194.648438 141.96875 L 217.046875 141.96875 L 217.046875 164.363281 L 194.648438 164.363281 Z M 194.648438 141.96875 " fill-opacity="1" fill-rule="evenodd"/><path fill="rgb(100%, 8.628845%, 8.628845%)" d="M 147.820312 199.28125 L 173.523438 199.28125 L 173.523438 224.980469 L 147.820312 224.980469 Z M 147.820312 199.28125 " fill-opacity="1" fill-rule="evenodd"/><path fill="rgb(16.468811%, 18.03894%, 18.818665%)" d="M 180.042969 182.667969 L 197.5625 182.667969 L 197.5625 200.195312 L 180.042969 200.195312 Z M 180.042969 182.667969 " fill-opacity="1" fill-rule="evenodd"/><path fill="rgb(100%, 8.628845%, 8.628845%)" d="M 207.648438 205.5 L 225.167969 205.5 L 225.167969 223.015625 L 207.648438 223.015625 Z M 207.648438 205.5 " fill-opacity="1" fill-rule="evenodd"/><g clip-path="url(#id2)"><path fill="rgb(16.468811%, 18.03894%, 18.818665%)" d="M 153.503906 241.054688 L 171.023438 241.054688 L 171.023438 258.570312 L 153.503906 258.570312 Z M 153.503906 241.054688 " fill-opacity="1" fill-rule="evenodd"/></g><path fill="rgb(16.468811%, 18.03894%, 18.818665%)" d="M 220.925781 134.375 L 238.445312 134.375 L 238.445312 151.890625 L 220.925781 151.890625 Z M 220.925781 134.375 " fill-opacity="1" fill-rule="evenodd"/><path fill="rgb(16.468811%, 18.03894%, 18.818665%)" d="M 160.535156 181.742188 L 169.296875 181.742188 L 169.296875 190.5 L 160.535156 190.5 Z M 160.535156 181.742188 " fill-opacity="1" fill-rule="evenodd"/><path fill="rgb(16.468811%, 18.03894%, 18.818665%)" d="M 190.21875 168.90625 L 198.976562 168.90625 L 198.976562 177.664062 L 190.21875 177.664062 Z M 190.21875 168.90625 " fill-opacity="1" fill-rule="evenodd"/><path fill="rgb(16.468811%, 18.03894%, 18.818665%)" d="M 182.671875 212.253906 L 198.363281 212.253906 L 198.363281 227.933594 L 182.671875 227.933594 Z M 182.671875 212.253906 " fill-opacity="1" fill-rule="evenodd"/><path fill="rgb(16.468811%, 18.03894%, 18.818665%)" d="M 177.628906 243.683594 L 188.015625 243.683594 L 188.015625 254.054688 L 177.628906 254.054688 Z M 177.628906 243.683594 " fill-opacity="1" fill-rule="evenodd"/><path fill="rgb(16.468811%, 18.03894%, 18.818665%)" d="M 203.382812 177.222656 L 219.0625 177.222656 L 219.0625 192.902344 L 203.382812 192.902344 Z M 203.382812 177.222656 " fill-opacity="1" fill-rule="evenodd"/><path fill="rgb(16.468811%, 18.03894%, 18.818665%)" d="M 223.015625 162.363281 L 238.707031 162.363281 L 238.707031 178.039062 L 223.015625 178.039062 Z M 223.015625 162.363281 " fill-opacity="1" fill-rule="evenodd"/><path fill="rgb(100%, 8.628845%, 8.628845%)" d="M 157.382812 96.601562 L 183.074219 96.601562 L 183.074219 122.289062 L 157.382812 122.289062 Z M 157.382812 96.601562 " fill-opacity="1" fill-rule="evenodd"/><g clip-path="url(#id3)"><path fill="rgb(16.468811%, 18.03894%, 18.818665%)" d="M 75.042969 151.925781 C 80.273438 151.789062 84.566406 150.386719 87.882812 147.671875 C 91.160156 144.984375 93.363281 141.292969 94.476562 136.613281 C 95.566406 131.910156 96.117188 123.839844 96.191406 112.46875 C 96.253906 101.09375 96.46875 93.585938 96.816406 89.996094 C 97.441406 84.28125 98.554688 79.664062 100.234375 76.183594 C 101.910156 72.730469 103.976562 69.941406 106.414062 67.839844 C 108.894531 65.773438 112.035156 64.175781 115.835938 63.097656 C 118.414062 62.433594 122.644531 62.085938 128.5 62.085938 L 134.21875 62.085938 L 134.21875 78.136719 L 131.042969 78.136719 C 123.960938 78.136719 119.277344 79.386719 116.9375 81.976562 C 114.636719 84.53125 113.484375 90.210938 113.484375 99.078125 C 113.484375 116.945312 113.097656 128.21875 112.332031 132.933594 C 111.121094 140.230469 109.019531 145.847656 106.050781 149.789062 C 103.085938 153.765625 98.445312 157.257812 92.085938 160.320312 C 99.59375 163.460938 105.039062 168.242188 108.417969 174.699219 C 111.769531 181.117188 113.472656 191.6875 113.472656 206.351562 C 113.472656 219.613281 113.574219 227.53125 113.859375 230.046875 C 114.421875 234.6875 115.773438 237.941406 118.015625 239.78125 C 120.21875 241.59375 124.570312 242.53125 131.027344 242.53125 L 134.207031 242.53125 L 134.207031 258.585938 L 128.488281 258.585938 C 121.820312 258.585938 116.976562 258.035156 113.972656 256.945312 C 109.605469 255.382812 106.015625 252.828125 103.148438 249.339844 C 100.285156 245.8125 98.40625 241.382812 97.566406 235.976562 C 96.730469 230.597656 96.242188 221.777344 96.167969 209.492188 C 96.089844 197.242188 95.539062 188.761719 94.453125 184.054688 C 93.339844 179.339844 91.136719 175.648438 87.859375 172.921875 C 84.542969 170.167969 80.25 168.730469 75.019531 168.628906 L 75.019531 151.953125 Z M 309.796875 151.925781 L 309.796875 168.605469 C 304.566406 168.703125 300.273438 170.144531 296.957031 172.894531 C 293.679688 175.625 291.476562 179.3125 290.363281 183.957031 C 289.289062 188.632812 288.6875 196.65625 288.648438 208.027344 C 288.574219 219.4375 288.375 226.90625 288.023438 230.535156 C 287.398438 236.328125 286.273438 240.929688 284.605469 244.382812 C 282.929688 247.835938 280.878906 250.589844 278.425781 252.652344 C 275.949219 254.742188 272.808594 256.320312 269.003906 257.394531 C 266.425781 258.160156 262.195312 258.546875 256.339844 258.546875 L 250.609375 258.546875 L 250.609375 242.496094 L 253.785156 242.496094 C 260.871094 242.496094 265.550781 241.207031 267.890625 238.652344 C 270.191406 236.101562 271.34375 230.347656 271.34375 221.414062 C 271.34375 204.386719 271.65625 193.5625 272.28125 188.996094 C 273.371094 181.464844 275.558594 175.386719 278.8125 170.855469 C 282.09375 166.351562 286.734375 162.824219 292.742188 160.285156 C 284.882812 156.554688 279.375 151.601562 276.160156 145.421875 C 272.945312 139.242188 271.34375 128.84375 271.34375 114.195312 C 271.34375 100.894531 271.207031 92.972656 270.855469 90.359375 C 270.367188 85.78125 269.039062 82.617188 266.800781 80.800781 C 264.597656 79.023438 260.242188 78.109375 253.785156 78.109375 L 250.609375 78.109375 L 250.609375 62.058594 L 256.339844 62.058594 C 263.007812 62.058594 267.851562 62.585938 270.855469 63.699219 C 275.222656 65.199219 278.8125 67.714844 281.679688 71.230469 C 284.542969 74.785156 286.421875 79.25 287.261719 84.628906 C 288.097656 90.046875 288.585938 98.867188 288.660156 111.117188 C 288.699219 123.402344 289.289062 131.847656 290.375 136.527344 C 291.488281 141.203125 293.691406 144.894531 296.96875 147.625 C 300.285156 150.351562 304.578125 151.777344 309.808594 151.914062 Z M 309.796875 151.925781 " fill-opacity="1" fill-rule="nonzero"/></g><g fill="rgb(16.468811%, 18.03894%, 18.818665%)" fill-opacity="1"><g transform="translate(136.031255, 285.825267)"><g><path d="M 6.796875 -2.515625 C 7.796875 -2.554688 8.554688 -2.90625 9.078125 -3.5625 C 9.171875 -3.664062 9.269531 -3.71875 9.375 -3.71875 C 9.46875 -3.71875 9.550781 -3.679688 9.625 -3.609375 L 10.921875 -2.359375 C 11.015625 -2.265625 11.0625 -2.171875 11.0625 -2.078125 C 11.0625 -1.972656 11.03125 -1.882812 10.96875 -1.8125 C 10.46875 -1.195312 9.828125 -0.707031 9.046875 -0.34375 C 8.273438 0.0078125 7.425781 0.1875 6.5 0.1875 C 5.113281 0.1875 3.960938 -0.164062 3.046875 -0.875 C 2.128906 -1.59375 1.515625 -2.570312 1.203125 -3.8125 C 1.015625 -4.46875 0.921875 -5.164062 0.921875 -5.90625 C 0.921875 -6.789062 1.003906 -7.535156 1.171875 -8.140625 C 1.472656 -9.253906 2.082031 -10.148438 3 -10.828125 C 3.914062 -11.503906 5 -11.84375 6.25 -11.84375 C 7.726562 -11.84375 8.898438 -11.40625 9.765625 -10.53125 C 10.640625 -9.65625 11.207031 -8.425781 11.46875 -6.84375 C 11.519531 -6.34375 11.5625 -5.789062 11.59375 -5.1875 C 11.59375 -4.925781 11.46875 -4.796875 11.21875 -4.796875 L 4.265625 -4.796875 C 4.171875 -4.796875 4.125 -4.753906 4.125 -4.671875 C 4.164062 -4.347656 4.21875 -4.113281 4.28125 -3.96875 C 4.4375 -3.5 4.734375 -3.140625 5.171875 -2.890625 C 5.617188 -2.640625 6.160156 -2.515625 6.796875 -2.515625 Z M 6.203125 -9.078125 C 5.722656 -9.078125 5.320312 -8.957031 5 -8.71875 C 4.675781 -8.488281 4.453125 -8.164062 4.328125 -7.75 C 4.253906 -7.457031 4.207031 -7.269531 4.1875 -7.1875 C 4.175781 -7.09375 4.210938 -7.046875 4.296875 -7.046875 L 8.15625 -7.046875 C 8.226562 -7.046875 8.265625 -7.078125 8.265625 -7.140625 C 8.265625 -7.304688 8.234375 -7.476562 8.171875 -7.65625 C 8.035156 -8.09375 7.800781 -8.4375 7.46875 -8.6875 C 7.144531 -8.945312 6.722656 -9.078125 6.203125 -9.078125 Z M 6.203125 -9.078125 "/></g></g></g><g fill="rgb(16.468811%, 18.03894%, 18.818665%)" fill-opacity="1"><g transform="translate(149.304709, 285.825267)"><g><path d="M 1.609375 0 C 1.347656 0 1.21875 -0.128906 1.21875 -0.390625 L 1.21875 -15.46875 C 1.21875 -15.726562 1.347656 -15.859375 1.609375 -15.859375 L 4.03125 -15.859375 C 4.289062 -15.859375 4.421875 -15.726562 4.421875 -15.46875 L 4.421875 -0.390625 C 4.421875 -0.128906 4.289062 0 4.03125 0 Z M 1.609375 0 "/></g></g></g><g fill="rgb(16.468811%, 18.03894%, 18.818665%)" fill-opacity="1"><g transform="translate(155.828213, 285.825267)"><g><path d="M 6.796875 -2.515625 C 7.796875 -2.554688 8.554688 -2.90625 9.078125 -3.5625 C 9.171875 -3.664062 9.269531 -3.71875 9.375 -3.71875 C 9.46875 -3.71875 9.550781 -3.679688 9.625 -3.609375 L 10.921875 -2.359375 C 11.015625 -2.265625 11.0625 -2.171875 11.0625 -2.078125 C 11.0625 -1.972656 11.03125 -1.882812 10.96875 -1.8125 C 10.46875 -1.195312 9.828125 -0.707031 9.046875 -0.34375 C 8.273438 0.0078125 7.425781 0.1875 6.5 0.1875 C 5.113281 0.1875 3.960938 -0.164062 3.046875 -0.875 C 2.128906 -1.59375 1.515625 -2.570312 1.203125 -3.8125 C 1.015625 -4.46875 0.921875 -5.164062 0.921875 -5.90625 C 0.921875 -6.789062 1.003906 -7.535156 1.171875 -8.140625 C 1.472656 -9.253906 2.082031 -10.148438 3 -10.828125 C 3.914062 -11.503906 5 -11.84375 6.25 -11.84375 C 7.726562 -11.84375 8.898438 -11.40625 9.765625 -10.53125 C 10.640625 -9.65625 11.207031 -8.425781 11.46875 -6.84375 C 11.519531 -6.34375 11.5625 -5.789062 11.59375 -5.1875 C 11.59375 -4.925781 11.46875 -4.796875 11.21875 -4.796875 L 4.265625 -4.796875 C 4.171875 -4.796875 4.125 -4.753906 4.125 -4.671875 C 4.164062 -4.347656 4.21875 -4.113281 4.28125 -3.96875 C 4.4375 -3.5 4.734375 -3.140625 5.171875 -2.890625 C 5.617188 -2.640625 6.160156 -2.515625 6.796875 -2.515625 Z M 6.203125 -9.078125 C 5.722656 -9.078125 5.320312 -8.957031 5 -8.71875 C 4.675781 -8.488281 4.453125 -8.164062 4.328125 -7.75 C 4.253906 -7.457031 4.207031 -7.269531 4.1875 -7.1875 C 4.175781 -7.09375 4.210938 -7.046875 4.296875 -7.046875 L 8.15625 -7.046875 C 8.226562 -7.046875 8.265625 -7.078125 8.265625 -7.140625 C 8.265625 -7.304688 8.234375 -7.476562 8.171875 -7.65625 C 8.035156 -8.09375 7.800781 -8.4375 7.46875 -8.6875 C 7.144531 -8.945312 6.722656 -9.078125 6.203125 -9.078125 Z M 6.203125 -9.078125 "/></g></g></g><g fill="rgb(16.468811%, 18.03894%, 18.818665%)" fill-opacity="1"><g transform="translate(169.101667, 285.825267)"><g><path d="M 14.09375 -11.828125 C 15.269531 -11.828125 16.191406 -11.472656 16.859375 -10.765625 C 17.523438 -10.054688 17.859375 -9.054688 17.859375 -7.765625 L 17.859375 -0.390625 C 17.859375 -0.128906 17.726562 0 17.46875 0 L 15.046875 0 C 14.785156 0 14.65625 -0.128906 14.65625 -0.390625 L 14.65625 -7.0625 C 14.65625 -7.6875 14.492188 -8.175781 14.171875 -8.53125 C 13.859375 -8.894531 13.4375 -9.078125 12.90625 -9.078125 C 12.382812 -9.078125 11.957031 -8.894531 11.625 -8.53125 C 11.289062 -8.175781 11.125 -7.695312 11.125 -7.09375 L 11.125 -0.390625 C 11.125 -0.128906 10.992188 0 10.734375 0 L 8.34375 0 C 8.082031 0 7.953125 -0.128906 7.953125 -0.390625 L 7.953125 -7.0625 C 7.953125 -7.664062 7.785156 -8.148438 7.453125 -8.515625 C 7.117188 -8.890625 6.6875 -9.078125 6.15625 -9.078125 C 5.675781 -9.078125 5.273438 -8.929688 4.953125 -8.640625 C 4.628906 -8.359375 4.4375 -7.960938 4.375 -7.453125 L 4.375 -0.390625 C 4.375 -0.128906 4.242188 0 3.984375 0 L 1.5625 0 C 1.300781 0 1.171875 -0.128906 1.171875 -0.390625 L 1.171875 -11.265625 C 1.171875 -11.515625 1.300781 -11.640625 1.5625 -11.640625 L 3.984375 -11.640625 C 4.242188 -11.640625 4.375 -11.515625 4.375 -11.265625 L 4.375 -10.53125 C 4.375 -10.46875 4.390625 -10.429688 4.421875 -10.421875 C 4.460938 -10.410156 4.5 -10.429688 4.53125 -10.484375 C 5.144531 -11.378906 6.097656 -11.828125 7.390625 -11.828125 C 8.140625 -11.828125 8.789062 -11.671875 9.34375 -11.359375 C 9.90625 -11.046875 10.335938 -10.597656 10.640625 -10.015625 C 10.660156 -9.953125 10.6875 -9.925781 10.71875 -9.9375 C 10.757812 -9.945312 10.796875 -9.972656 10.828125 -10.015625 C 11.171875 -10.617188 11.625 -11.070312 12.1875 -11.375 C 12.75 -11.675781 13.382812 -11.828125 14.09375 -11.828125 Z M 14.09375 -11.828125 "/></g></g></g><g fill="rgb(16.468811%, 18.03894%, 18.818665%)" fill-opacity="1"><g transform="translate(188.898565, 285.825267)"><g><path d="M 6.796875 -2.515625 C 7.796875 -2.554688 8.554688 -2.90625 9.078125 -3.5625 C 9.171875 -3.664062 9.269531 -3.71875 9.375 -3.71875 C 9.46875 -3.71875 9.550781 -3.679688 9.625 -3.609375 L 10.921875 -2.359375 C 11.015625 -2.265625 11.0625 -2.171875 11.0625 -2.078125 C 11.0625 -1.972656 11.03125 -1.882812 10.96875 -1.8125 C 10.46875 -1.195312 9.828125 -0.707031 9.046875 -0.34375 C 8.273438 0.0078125 7.425781 0.1875 6.5 0.1875 C 5.113281 0.1875 3.960938 -0.164062 3.046875 -0.875 C 2.128906 -1.59375 1.515625 -2.570312 1.203125 -3.8125 C 1.015625 -4.46875 0.921875 -5.164062 0.921875 -5.90625 C 0.921875 -6.789062 1.003906 -7.535156 1.171875 -8.140625 C 1.472656 -9.253906 2.082031 -10.148438 3 -10.828125 C 3.914062 -11.503906 5 -11.84375 6.25 -11.84375 C 7.726562 -11.84375 8.898438 -11.40625 9.765625 -10.53125 C 10.640625 -9.65625 11.207031 -8.425781 11.46875 -6.84375 C 11.519531 -6.34375 11.5625 -5.789062 11.59375 -5.1875 C 11.59375 -4.925781 11.46875 -4.796875 11.21875 -4.796875 L 4.265625 -4.796875 C 4.171875 -4.796875 4.125 -4.753906 4.125 -4.671875 C 4.164062 -4.347656 4.21875 -4.113281 4.28125 -3.96875 C 4.4375 -3.5 4.734375 -3.140625 5.171875 -2.890625 C 5.617188 -2.640625 6.160156 -2.515625 6.796875 -2.515625 Z M 6.203125 -9.078125 C 5.722656 -9.078125 5.320312 -8.957031 5 -8.71875 C 4.675781 -8.488281 4.453125 -8.164062 4.328125 -7.75 C 4.253906 -7.457031 4.207031 -7.269531 4.1875 -7.1875 C 4.175781 -7.09375 4.210938 -7.046875 4.296875 -7.046875 L 8.15625 -7.046875 C 8.226562 -7.046875 8.265625 -7.078125 8.265625 -7.140625 C 8.265625 -7.304688 8.234375 -7.476562 8.171875 -7.65625 C 8.035156 -8.09375 7.800781 -8.4375 7.46875 -8.6875 C 7.144531 -8.945312 6.722656 -9.078125 6.203125 -9.078125 Z M 6.203125 -9.078125 "/></g></g></g><g fill="rgb(16.468811%, 18.03894%, 18.818665%)" fill-opacity="1"><g transform="translate(202.17202, 285.825267)"><g><path d="M 7.25 -11.828125 C 8.457031 -11.828125 9.429688 -11.457031 10.171875 -10.71875 C 10.910156 -9.976562 11.28125 -8.972656 11.28125 -7.703125 L 11.28125 -0.390625 C 11.28125 -0.128906 11.148438 0 10.890625 0 L 8.46875 0 C 8.21875 0 8.09375 -0.128906 8.09375 -0.390625 L 8.09375 -7.046875 C 8.09375 -7.648438 7.925781 -8.140625 7.59375 -8.515625 C 7.257812 -8.890625 6.8125 -9.078125 6.25 -9.078125 C 5.695312 -9.078125 5.242188 -8.890625 4.890625 -8.515625 C 4.546875 -8.140625 4.375 -7.648438 4.375 -7.046875 L 4.375 -0.390625 C 4.375 -0.128906 4.242188 0 3.984375 0 L 1.5625 0 C 1.300781 0 1.171875 -0.128906 1.171875 -0.390625 L 1.171875 -11.265625 C 1.171875 -11.515625 1.300781 -11.640625 1.5625 -11.640625 L 3.984375 -11.640625 C 4.242188 -11.640625 4.375 -11.515625 4.375 -11.265625 L 4.375 -10.625 C 4.375 -10.5625 4.390625 -10.519531 4.421875 -10.5 C 4.453125 -10.488281 4.484375 -10.507812 4.515625 -10.5625 C 5.128906 -11.40625 6.039062 -11.828125 7.25 -11.828125 Z M 7.25 -11.828125 "/></g></g></g><g fill="rgb(16.468811%, 18.03894%, 18.818665%)" fill-opacity="1"><g transform="translate(215.445472, 285.825267)"><g><path d="M 7.859375 -9.46875 C 7.859375 -9.207031 7.726562 -9.078125 7.46875 -9.078125 L 5.4375 -9.078125 C 5.34375 -9.078125 5.296875 -9.035156 5.296875 -8.953125 L 5.296875 -4.265625 C 5.296875 -3.765625 5.394531 -3.394531 5.59375 -3.15625 C 5.800781 -2.925781 6.132812 -2.8125 6.59375 -2.8125 L 7.234375 -2.8125 C 7.484375 -2.8125 7.609375 -2.679688 7.609375 -2.421875 L 7.609375 -0.46875 C 7.609375 -0.226562 7.484375 -0.09375 7.234375 -0.0625 C 6.648438 -0.03125 6.234375 -0.015625 5.984375 -0.015625 C 4.722656 -0.015625 3.785156 -0.226562 3.171875 -0.65625 C 2.554688 -1.082031 2.238281 -1.867188 2.21875 -3.015625 L 2.21875 -8.953125 C 2.21875 -9.035156 2.171875 -9.078125 2.078125 -9.078125 L 0.921875 -9.078125 C 0.671875 -9.078125 0.546875 -9.207031 0.546875 -9.46875 L 0.546875 -11.265625 C 0.546875 -11.515625 0.671875 -11.640625 0.921875 -11.640625 L 2.078125 -11.640625 C 2.171875 -11.640625 2.21875 -11.6875 2.21875 -11.78125 L 2.21875 -14.34375 C 2.21875 -14.59375 2.347656 -14.71875 2.609375 -14.71875 L 4.921875 -14.71875 C 5.171875 -14.71875 5.296875 -14.59375 5.296875 -14.34375 L 5.296875 -11.78125 C 5.296875 -11.6875 5.34375 -11.640625 5.4375 -11.640625 L 7.46875 -11.640625 C 7.726562 -11.640625 7.859375 -11.515625 7.859375 -11.265625 Z M 7.859375 -9.46875 "/></g></g></g><g fill="rgb(16.468811%, 18.03894%, 18.818665%)" fill-opacity="1"><g transform="translate(224.936238, 285.825267)"><g><path d="M 5.84375 -11.828125 C 6.820312 -11.828125 7.695312 -11.65625 8.46875 -11.3125 C 9.238281 -10.976562 9.835938 -10.515625 10.265625 -9.921875 C 10.703125 -9.335938 10.921875 -8.679688 10.921875 -7.953125 L 10.921875 -0.390625 C 10.921875 -0.128906 10.789062 0 10.53125 0 L 8.109375 0 C 7.847656 0 7.71875 -0.128906 7.71875 -0.390625 L 7.71875 -0.921875 C 7.71875 -0.984375 7.703125 -1.019531 7.671875 -1.03125 C 7.648438 -1.039062 7.613281 -1.019531 7.5625 -0.96875 C 6.875 -0.195312 5.84375 0.1875 4.46875 0.1875 C 3.300781 0.1875 2.363281 -0.0976562 1.65625 -0.671875 C 0.945312 -1.253906 0.59375 -2.101562 0.59375 -3.21875 C 0.59375 -4.382812 1 -5.285156 1.8125 -5.921875 C 2.625 -6.566406 3.785156 -6.890625 5.296875 -6.890625 L 7.59375 -6.890625 C 7.675781 -6.890625 7.71875 -6.929688 7.71875 -7.015625 L 7.71875 -7.5 C 7.71875 -8 7.5625 -8.382812 7.25 -8.65625 C 6.945312 -8.9375 6.5 -9.078125 5.90625 -9.078125 C 5.457031 -9.078125 5.082031 -9 4.78125 -8.84375 C 4.488281 -8.695312 4.289062 -8.488281 4.1875 -8.21875 C 4.101562 -8.007812 3.953125 -7.910156 3.734375 -7.921875 L 1.21875 -8.25 C 1.101562 -8.257812 1.007812 -8.289062 0.9375 -8.34375 C 0.875 -8.394531 0.847656 -8.46875 0.859375 -8.5625 C 0.929688 -9.1875 1.191406 -9.742188 1.640625 -10.234375 C 2.085938 -10.734375 2.675781 -11.125 3.40625 -11.40625 C 4.144531 -11.6875 4.957031 -11.828125 5.84375 -11.828125 Z M 5.390625 -2.203125 C 6.035156 -2.203125 6.582031 -2.375 7.03125 -2.71875 C 7.488281 -3.0625 7.71875 -3.507812 7.71875 -4.0625 L 7.71875 -4.84375 C 7.71875 -4.9375 7.675781 -4.984375 7.59375 -4.984375 L 5.984375 -4.984375 C 5.304688 -4.984375 4.769531 -4.851562 4.375 -4.59375 C 3.976562 -4.34375 3.78125 -3.984375 3.78125 -3.515625 C 3.78125 -3.109375 3.925781 -2.785156 4.21875 -2.546875 C 4.519531 -2.316406 4.910156 -2.203125 5.390625 -2.203125 Z M 5.390625 -2.203125 "/></g></g></g><g fill="rgb(16.468811%, 18.03894%, 18.818665%)" fill-opacity="1"><g transform="translate(237.779331, 285.825267)"><g><path d="M 1.609375 0 C 1.347656 0 1.21875 -0.128906 1.21875 -0.390625 L 1.21875 -15.46875 C 1.21875 -15.726562 1.347656 -15.859375 1.609375 -15.859375 L 4.03125 -15.859375 C 4.289062 -15.859375 4.421875 -15.726562 4.421875 -15.46875 L 4.421875 -0.390625 C 4.421875 -0.128906 4.289062 0 4.03125 0 Z M 1.609375 0 "/></g></g></g><g fill="rgb(16.468811%, 18.03894%, 18.818665%)" fill-opacity="1"><g transform="translate(244.301189, 285.825267)"><g/></g></g></svg>